<svg width="124" height="50" viewBox="0 0 124 50" fill="none" xmlns="http://www.w3.org/2000/svg">
<path d="M33.3718 8.23568C33.431 8.13144 33.5033 8.0357 33.5888 7.94845C34.0379 7.48642 34.557 7.17987 35.1461 7.02878C36.1897 6.76117 37.1456 6.9143 38.0141 7.48818C38.5382 7.83484 38.9261 8.30449 39.1779 8.8971C39.353 9.31052 39.423 9.76435 39.3878 10.2586C39.2859 11.6781 38.2178 12.7576 36.8563 13.0606C35.7566 13.306 34.7356 13.0583 33.7934 12.3175C33.7794 12.3064 33.7688 12.2929 33.7618 12.2771C33.7589 12.2701 33.7562 12.2631 33.7539 12.256C33.7499 12.2446 33.7422 12.2345 33.7319 12.227C33.6254 12.1509 33.5261 12.0537 33.4342 11.9354C33.0699 11.4669 32.8533 10.9847 32.7842 10.4887C32.677 9.71926 32.8293 9.02329 33.2409 8.40081C33.2501 8.38647 33.2553 8.37009 33.2559 8.35338C33.257 8.31942 33.2726 8.29804 33.3024 8.28926C33.3329 8.28106 33.356 8.2632 33.3718 8.23568Z" fill="#172435"/>
<path d="M89.9465 13.1538C91.7837 13.1538 93.273 11.7542 93.273 10.0276C93.273 8.30112 91.7837 6.90149 89.9465 6.90149C88.1094 6.90149 86.6201 8.30112 86.6201 10.0276C86.6201 11.7542 88.1094 13.1538 89.9465 13.1538Z" fill="#172435"/>
<path d="M24.1222 24.1071C25.5962 24.2108 26.9088 24.7173 28.06 25.6267C28.1695 25.7134 28.2738 25.7936 28.3727 25.8674C28.3973 25.8856 28.4149 25.9087 28.4254 25.9368C28.4366 25.9673 28.4588 25.9869 28.4922 25.9957C28.506 25.9997 28.5187 26.0069 28.5291 26.0167C29.6112 27.0521 30.3339 28.285 30.6969 29.7156C31.0606 31.1462 31.0928 32.5888 30.7935 34.0434C30.3871 36.0232 29.3635 37.6131 27.7227 38.813C27.0224 39.3248 26.2409 39.7388 25.3783 40.055C24.7149 40.298 24.028 40.4872 23.3177 40.6224C22.0616 40.8622 20.7958 40.9351 19.523 40.9343C15.3168 40.9319 11.0868 40.9316 6.83309 40.9334C6.82975 40.9334 6.82643 40.9327 6.82334 40.9314C6.82025 40.9301 6.81744 40.9281 6.81508 40.9257C6.81271 40.9232 6.81084 40.9203 6.80956 40.9171C6.80828 40.9139 6.80762 40.9105 6.80762 40.907V8.52116C6.80762 8.49422 6.82109 8.48076 6.84802 8.48076C11.1773 8.47022 15.4866 8.4708 19.776 8.48251C20.0553 8.48368 20.3798 8.49949 20.7493 8.52995C21.9597 8.62891 23.0814 8.85173 24.1143 9.19839C24.2215 9.23441 24.3295 9.31082 24.4358 9.31258C24.4663 9.31317 24.4956 9.3199 24.5237 9.33278C24.5377 9.33981 24.5521 9.34625 24.5667 9.35211C25.5552 9.75499 26.4221 10.2756 27.1676 10.9139C27.2244 10.9625 27.2771 11.0143 27.3257 11.0693C27.3778 11.1291 27.4381 11.1753 27.5066 11.2081C27.5242 11.2169 27.5356 11.2307 27.5409 11.2494C27.5432 11.2582 27.5459 11.267 27.5488 11.2758C27.5517 11.2851 27.557 11.293 27.5646 11.2995C27.7473 11.4582 27.9016 11.6341 28.0275 11.8274C28.0375 11.842 28.0507 11.8532 28.0671 11.8608C28.0835 11.8684 28.0966 11.8789 28.1066 11.8924C28.592 12.5406 28.9431 13.1564 29.1598 13.7396C29.7828 15.4203 29.8976 17.1126 29.5041 18.8167C28.891 21.472 26.7161 23.184 24.131 23.7874C24.1128 23.7916 24.0965 23.8019 24.0848 23.8166C24.0731 23.8313 24.0668 23.8495 24.0669 23.8682L24.0678 24.0492C24.0678 24.0849 24.0859 24.1042 24.1222 24.1071ZM22.9883 20.2792C23.0155 20.2423 23.048 20.2335 23.0735 20.1948C23.1882 20.0156 23.2966 19.8306 23.3985 19.6397C23.4749 19.4965 23.5153 19.334 23.5926 19.1891C23.6435 19.0907 23.6181 19.0125 23.6602 18.9142C23.686 18.8527 23.7062 18.7865 23.7208 18.7156C23.8491 18.1066 23.8699 17.5184 23.7832 16.951C23.5864 15.6627 22.9262 14.7012 21.8024 14.0664C21.2901 13.7765 20.7074 13.5757 20.0545 13.4638C19.5614 13.3789 19.0546 13.3359 18.534 13.3347C16.6221 13.3294 14.6975 13.328 12.7604 13.3303C12.7425 13.3303 12.7253 13.3375 12.7126 13.3504C12.6999 13.3632 12.6928 13.3806 12.6928 13.3988V22.2063C12.6928 22.2224 12.6992 22.2378 12.7105 22.2492C12.7219 22.2605 12.7373 22.2669 12.7534 22.2669C14.588 22.2663 16.4856 22.2663 18.4462 22.2669C20.1485 22.2669 21.9518 21.7109 22.9883 20.2792ZM21.6197 26.9109C21.6115 26.9027 21.6022 26.8972 21.5916 26.8942C21.3185 26.8301 21.0497 26.7273 20.7835 26.6764C20.1886 26.564 19.5913 26.5072 18.9916 26.506C16.8999 26.5025 14.822 26.5034 12.7578 26.5086C12.7492 26.5086 12.7408 26.5103 12.7329 26.5136C12.725 26.5168 12.7178 26.5216 12.7118 26.5277C12.7058 26.5337 12.701 26.5409 12.6977 26.5488C12.6944 26.5566 12.6928 26.5651 12.6928 26.5736V35.9424C12.6928 35.9746 12.7086 35.9907 12.7402 35.9907C15.0187 35.9925 17.1781 35.9916 19.2183 35.9881C20.0258 35.9869 20.8023 35.8965 21.5477 35.7167C21.8546 35.6429 22.1664 35.541 22.4832 35.411C23.1888 35.1217 23.7601 34.7057 24.1969 34.1628C24.427 33.8771 24.5986 33.5691 24.7116 33.2388C24.7128 33.2341 24.7152 33.2303 24.7187 33.2274C24.721 33.225 24.7236 33.223 24.7266 33.2212C24.7342 33.2165 24.7395 33.2101 24.7424 33.2019C25.0246 32.3821 25.0832 31.5368 24.9181 30.666C24.825 30.1741 24.6841 29.7455 24.4956 29.3801C23.9047 28.2329 22.954 27.4148 21.6435 26.9259C21.6341 26.9229 21.6262 26.918 21.6197 26.9109Z" fill="#172435"/>
<path d="M47.7622 8.53166V40.878C47.7622 40.8925 47.7564 40.9063 47.7462 40.9165C47.736 40.9267 47.7222 40.9325 47.7077 40.9325H42.0632C42.0488 40.9325 42.035 40.9267 42.0247 40.9165C42.0145 40.9063 42.0088 40.8925 42.0088 40.878V8.53078C42.0088 8.51633 42.0145 8.50248 42.0247 8.49227C42.035 8.48206 42.0488 8.47632 42.0632 8.47632L47.7077 8.4772C47.7222 8.4772 47.736 8.48293 47.7462 8.49315C47.7564 8.50336 47.7622 8.51721 47.7622 8.53166Z" fill="#172435"/>
<path d="M56.5019 8.47632H50.8574C50.8331 8.47632 50.8135 8.49598 50.8135 8.52024V40.8885C50.8135 40.9128 50.8331 40.9325 50.8574 40.9325H56.5019C56.5261 40.9325 56.5458 40.9128 56.5458 40.8885V8.52024C56.5458 8.49598 56.5261 8.47632 56.5019 8.47632Z" fill="#172435"/>
<path d="M101.415 20.7069C101.535 20.7409 101.616 20.7095 101.658 20.6129C101.828 20.2282 102.034 19.8464 102.278 19.4675C102.287 19.4537 102.292 19.4376 102.293 19.4209C102.295 19.3817 102.313 19.3539 102.346 19.3375C102.373 19.3234 102.395 19.3035 102.412 19.2778C103.181 18.1236 104.379 17.2689 105.698 16.7858C106.571 16.4661 107.526 16.2939 108.561 16.2693C109.155 16.2553 109.723 16.2828 110.265 16.3519C110.848 16.4262 111.403 16.5545 111.931 16.7366C114.087 17.4832 115.601 18.9478 116.471 21.1303C116.839 22.0526 117.064 23.0425 117.148 24.1001C117.19 24.6224 117.209 25.2039 117.207 25.8445C117.193 30.75 117.192 35.7617 117.203 40.8798C117.203 40.9149 117.186 40.9325 117.151 40.9325H111.512C111.5 40.9325 111.489 40.9276 111.48 40.9188C111.472 40.9101 111.467 40.8983 111.467 40.8859C111.467 36.128 111.467 31.2849 111.466 26.3566C111.466 25.2279 111.237 23.9955 110.633 23.0724C110.132 22.3047 109.462 21.7642 108.623 21.4509C107.784 21.137 106.857 21.0524 105.841 21.197C104.849 21.3382 104.002 21.72 103.3 22.3424C103.218 22.415 103.143 22.4903 103.076 22.5682C103.011 22.6437 102.934 22.656 102.899 22.7579C102.89 22.7831 102.874 22.8033 102.852 22.8185C102.845 22.8232 102.837 22.8273 102.83 22.8308C102.82 22.8355 102.813 22.8419 102.807 22.8501C102.358 23.4252 102.037 24.0749 101.842 24.7993C101.753 25.1301 101.693 25.4542 101.66 25.7716C101.623 26.1353 101.604 26.5147 101.604 26.91C101.607 31.6726 101.608 36.3344 101.606 40.8956C101.606 40.9054 101.602 40.9147 101.595 40.9217C101.588 40.9286 101.579 40.9325 101.569 40.9325H95.8974C95.8682 40.9325 95.8535 40.9178 95.8535 40.8886V16.6672C95.8535 16.6437 95.8628 16.6211 95.8792 16.6045C95.8957 16.5878 95.9181 16.5785 95.9414 16.5785H101.321C101.351 16.5785 101.365 16.5934 101.365 16.6233V20.6401C101.365 20.6753 101.382 20.6975 101.415 20.7069Z" fill="#172435"/>
<path d="M38.9354 16.6154V40.8964C38.9354 40.906 38.9316 40.9152 38.9249 40.9219C38.9181 40.9287 38.909 40.9325 38.8994 40.9325H33.2391C33.2296 40.9325 33.2204 40.9287 33.2137 40.9219C33.2069 40.9152 33.2031 40.906 33.2031 40.8964V16.6145C33.2031 16.605 33.2069 16.5958 33.2137 16.589C33.2204 16.5823 33.2296 16.5785 33.2391 16.5785L38.8994 16.5794C38.909 16.5794 38.9181 16.5832 38.9249 16.5899C38.9316 16.5967 38.9354 16.6058 38.9354 16.6154Z" fill="#172435"/>
<path d="M74.5357 22.0174C74.4315 21.9899 74.3372 21.9887 74.2529 22.0139C74.2172 22.025 74.1829 22.0215 74.1501 22.0034C74.1003 21.9753 74.0517 21.9782 74.0043 22.0122C73.9911 22.0217 73.9754 22.027 73.959 22.0273C73.9427 22.0276 73.9266 22.0229 73.9129 22.0139C73.8573 21.9758 73.8014 21.9747 73.7452 22.0104C73.7124 22.0315 73.6796 22.0318 73.6468 22.0113C73.5923 21.9767 73.537 21.9767 73.4808 22.0113C73.448 22.0312 73.4152 22.0309 73.3824 22.0104C73.3279 21.9758 73.2738 21.9758 73.2199 22.0104C73.2044 22.0203 73.1865 22.0256 73.1681 22.0256C73.1497 22.0256 73.1317 22.0203 73.1163 22.0104C73.0636 21.9758 73.0111 21.9756 72.959 22.0095C72.9431 22.02 72.9245 22.0256 72.9054 22.0256C72.8864 22.0256 72.8678 22.02 72.8519 22.0095C72.7997 21.9756 72.7473 21.9758 72.6946 22.0104C72.6789 22.0206 72.6606 22.026 72.6419 22.026C72.6232 22.026 72.6049 22.0206 72.5892 22.0104C72.5365 21.9758 72.4835 21.9758 72.4302 22.0104C72.4148 22.0203 72.397 22.0256 72.3787 22.0256C72.3605 22.0256 72.3427 22.0203 72.3275 22.0104C72.2736 21.9758 72.2191 21.9761 72.1641 22.0113C72.1319 22.0318 72.0997 22.0318 72.0675 22.0113C72.0113 21.9761 71.9553 21.9761 71.8997 22.0113C71.8669 22.0318 71.8344 22.0318 71.8022 22.0113C71.7472 21.9761 71.6921 21.9761 71.6371 22.0113C71.6224 22.0207 71.6053 22.0256 71.5879 22.0256C71.5704 22.0256 71.5534 22.0207 71.5387 22.0113C71.4836 21.9761 71.4292 21.9758 71.3753 22.0104C71.3599 22.0203 71.342 22.0256 71.3238 22.0256C71.3055 22.0256 71.2877 22.0203 71.2725 22.0104C71.2192 21.9758 71.1662 21.9756 71.1135 22.0095C71.0976 22.0197 71.0791 22.0252 71.0603 22.0252C71.0414 22.0252 71.023 22.0197 71.0073 22.0095C70.9551 21.9756 70.9027 21.9758 70.85 22.0104C70.8343 22.0204 70.8162 22.0257 70.7976 22.0257C70.7791 22.0257 70.761 22.0204 70.7455 22.0104C70.6922 21.9758 70.6386 21.9758 70.5848 22.0104C70.5698 22.0201 70.5524 22.0254 70.5347 22.0255C70.5169 22.0257 70.4996 22.0207 70.4846 22.0113C70.4296 21.9761 70.3751 21.9758 70.3212 22.0104C70.3059 22.0203 70.288 22.0256 70.2697 22.0256C70.2515 22.0256 70.2337 22.0203 70.2185 22.0104C70.1652 21.9758 70.1116 21.9758 70.0577 22.0104C70.0428 22.02 70.0254 22.0252 70.0077 22.0252C69.9899 22.0252 69.9725 22.02 69.9576 22.0104C69.9026 21.9758 69.8481 21.9758 69.7942 22.0104C69.7788 22.0203 69.7609 22.0256 69.7427 22.0256C69.7245 22.0256 69.7067 22.0203 69.6914 22.0104C69.6382 21.9758 69.5846 21.9758 69.5307 22.0104C69.5158 22.0201 69.4984 22.0254 69.4806 22.0255C69.4629 22.0257 69.4455 22.0207 69.4306 22.0113C69.3755 21.9761 69.3211 21.9758 69.2672 22.0104C69.2518 22.0203 69.2339 22.0256 69.2157 22.0256C69.1974 22.0256 69.1796 22.0203 69.1644 22.0104C69.1111 21.9758 69.0576 21.9758 69.0037 22.0104C68.9887 22.0201 68.9714 22.0254 68.9536 22.0255C68.9358 22.0257 68.9185 22.0207 68.9035 22.0113C68.8485 21.9761 68.794 21.9758 68.7402 22.0104C68.7247 22.0203 68.7067 22.0256 68.6883 22.0256C68.67 22.0256 68.652 22.0203 68.6365 22.0104C68.5838 21.9758 68.5311 21.9758 68.4784 22.0104C68.4626 22.0204 68.4444 22.0257 68.4257 22.0257C68.407 22.0257 68.3888 22.0204 68.373 22.0104C68.3203 21.9758 68.2673 21.9758 68.214 22.0104C68.1986 22.0203 68.1806 22.0256 68.1622 22.0256C68.1438 22.0256 68.1258 22.0203 68.1104 22.0104C68.0571 21.9758 68.0032 21.9758 67.9487 22.0104C67.9154 22.0315 67.8823 22.0318 67.8495 22.0113C67.7944 21.9761 67.74 21.9758 67.6861 22.0104C67.6707 22.0203 67.6527 22.0256 67.6343 22.0256C67.6159 22.0256 67.5979 22.0203 67.5825 22.0104C67.5298 21.9758 67.477 21.9758 67.4243 22.0104C67.4086 22.0203 67.3903 22.0255 67.3717 22.0253C67.353 22.0252 67.3347 22.0197 67.3189 22.0095C67.2662 21.9756 67.2135 21.9758 67.1608 22.0104C67.1451 22.0204 67.1268 22.0257 67.1081 22.0257C67.0895 22.0257 67.0712 22.0204 67.0554 22.0104C67.0027 21.9758 66.9497 21.9758 66.8964 22.0104C66.8813 22.0201 66.8637 22.0252 66.8458 22.0252C66.8279 22.0252 66.8104 22.0201 66.7954 22.0104C66.7404 21.9758 66.6862 21.9758 66.6329 22.0104C66.6172 22.0204 66.599 22.0257 66.5805 22.0257C66.562 22.0257 66.5439 22.0204 66.5284 22.0104C66.4757 21.9758 66.423 21.9758 66.3703 22.0104C66.3546 22.0203 66.3363 22.0255 66.3176 22.0253C66.2989 22.0252 66.2806 22.0197 66.2649 22.0095C66.2122 21.9756 66.1595 21.9758 66.1068 22.0104C66.091 22.0204 66.0727 22.0257 66.0541 22.0257C66.0354 22.0257 66.0171 22.0204 66.0014 22.0104C65.9487 21.9758 65.8954 21.9758 65.8415 22.0104C65.8261 22.0203 65.8082 22.0256 65.79 22.0256C65.7717 22.0256 65.7539 22.0203 65.7387 22.0104C65.6854 21.9758 65.6322 21.9758 65.5789 22.0104C65.5634 22.0203 65.5454 22.0256 65.527 22.0256C65.5087 22.0256 65.4907 22.0203 65.4752 22.0104C65.4219 21.9758 65.3684 21.9758 65.3145 22.0104C65.2995 22.0201 65.2822 22.0254 65.2644 22.0255C65.2467 22.0257 65.2293 22.0207 65.2143 22.0113C65.1593 21.9761 65.1048 21.9758 65.051 22.0104C65.0356 22.0203 65.0177 22.0256 64.9994 22.0256C64.9812 22.0256 64.9634 22.0203 64.9482 22.0104C64.8949 21.9758 64.8413 21.9758 64.7875 22.0104C64.7725 22.02 64.7551 22.0252 64.7374 22.0252C64.7196 22.0252 64.7022 22.02 64.6873 22.0104C64.6323 21.9758 64.5778 21.9758 64.5239 22.0104C64.5085 22.0203 64.4905 22.0256 64.4721 22.0256C64.4537 22.0256 64.4357 22.0203 64.4203 22.0104C64.3676 21.9758 64.3149 21.9758 64.2622 22.0104C64.2464 22.0204 64.2281 22.0257 64.2095 22.0257C64.1908 22.0257 64.1725 22.0204 64.1568 22.0104C64.1041 21.9758 64.0514 21.9756 63.9987 22.0095C63.983 22.0197 63.9647 22.0252 63.946 22.0252C63.9273 22.0252 63.9089 22.0197 63.8933 22.0095C63.8406 21.9756 63.7876 21.9758 63.7343 22.0104C63.7186 22.0204 63.7004 22.0257 63.6819 22.0257C63.6633 22.0257 63.6453 22.0204 63.6297 22.0104C63.577 21.9758 63.5243 21.9758 63.4716 22.0104C63.4559 22.0204 63.4376 22.0257 63.4189 22.0257C63.4003 22.0257 63.382 22.0204 63.3662 22.0104C63.3135 21.9758 63.2605 21.9758 63.2072 22.0104C63.1921 22.0201 63.1745 22.0252 63.1566 22.0252C63.1387 22.0252 63.1212 22.0201 63.1062 22.0104C63.0512 21.9758 62.997 21.9758 62.9437 22.0104C62.928 22.0204 62.9098 22.0257 62.8913 22.0257C62.8728 22.0257 62.8547 22.0204 62.8392 22.0104C62.7865 21.9758 62.7341 21.9756 62.682 22.0095C62.666 22.0198 62.6474 22.0252 62.6284 22.0252C62.6094 22.0252 62.5908 22.0198 62.5748 22.0095C62.5227 21.9761 62.4706 21.9761 62.4185 22.0095C62.4025 22.02 62.3838 22.0256 62.3646 22.0256C62.3454 22.0256 62.3266 22.02 62.3104 22.0095C62.2589 21.9761 62.2071 21.9761 62.1549 22.0095C62.139 22.0198 62.1204 22.0252 62.1014 22.0252C62.0824 22.0252 62.0638 22.0198 62.0478 22.0095C61.9957 21.9756 61.9433 21.9756 61.8906 22.0095C61.8749 22.0197 61.8566 22.0252 61.8379 22.0252C61.8191 22.0252 61.8008 22.0197 61.7851 22.0095C61.7324 21.9761 61.6795 21.9764 61.6262 22.0104C61.6107 22.0201 61.5928 22.0253 61.5746 22.0253C61.5565 22.0253 61.5387 22.0201 61.5234 22.0104C61.4695 21.9764 61.4156 21.9764 61.3618 22.0104C61.3465 22.0199 61.3288 22.0249 61.3108 22.0249C61.2928 22.0249 61.2752 22.0199 61.2599 22.0104C61.206 21.9764 61.1518 21.9764 61.0974 22.0104C61.0646 22.0309 61.0315 22.0309 60.9981 22.0104C60.9437 21.977 60.8892 21.977 60.8347 22.0104C60.8008 22.0309 60.7668 22.0306 60.7328 22.0095C60.679 21.9767 60.6251 21.977 60.5712 22.0104C60.5378 22.0309 60.5042 22.0309 60.4702 22.0104C60.4163 21.9776 60.363 21.9773 60.3103 22.0095C60.2939 22.0194 60.2751 22.0246 60.2561 22.0246C60.237 22.0246 60.2184 22.0194 60.2023 22.0095C60.1519 21.9779 60.1007 21.9773 60.0486 22.0078C60.0129 22.0288 59.9763 22.0297 59.9388 22.0104C59.8767 21.9776 59.8135 21.9805 59.7491 22.0192C59.7377 22.0261 59.7246 22.0298 59.7113 22.03C59.6979 22.0301 59.6848 22.0267 59.6733 22.0201C59.6617 22.0134 59.6521 22.0038 59.6455 21.9922C59.6389 21.9806 59.6355 21.9675 59.6358 21.9542L59.6568 19.464C59.6574 19.4347 59.6618 19.406 59.67 19.3779C59.6923 19.3006 59.6882 19.2233 59.6577 19.146C59.6472 19.1185 59.6472 19.0907 59.6577 19.0626C59.6923 18.973 59.6926 18.8839 59.6586 18.7955C59.6475 18.7668 59.6475 18.7384 59.6586 18.7103C59.6926 18.6213 59.6926 18.5326 59.6586 18.4442C59.6475 18.4155 59.6475 18.3871 59.6586 18.359C59.6926 18.27 59.6926 18.1812 59.6586 18.0928C59.6475 18.0647 59.6475 18.0363 59.6586 18.0076C59.6926 17.918 59.692 17.8284 59.6568 17.7388C59.6463 17.7119 59.6469 17.6852 59.6586 17.6589C59.6844 17.5968 59.6899 17.533 59.6753 17.4674C59.6624 17.41 59.6586 17.3506 59.6639 17.2891C59.6826 17.0841 59.6858 16.8815 59.6735 16.6813C59.6727 16.6681 59.6746 16.6548 59.679 16.6424C59.6835 16.63 59.6905 16.6186 59.6996 16.6089C59.7086 16.5993 59.7195 16.5916 59.7317 16.5864C59.7438 16.5812 59.7569 16.5785 59.7701 16.5785H83.9282C83.9581 16.5785 83.973 16.5931 83.973 16.6224V40.8648C83.973 40.8732 83.9698 40.8813 83.964 40.8872C83.9583 40.8931 83.9504 40.8964 83.9423 40.8964L78.5315 40.8956C78.5045 40.8956 78.4916 40.8821 78.4928 40.8552C78.499 40.7173 78.5288 40.5758 78.528 40.4397C78.5215 37.5844 78.5247 34.6778 78.5376 31.72C78.5382 31.6339 78.5473 31.542 78.5648 31.4442C78.5754 31.3851 78.5684 31.3271 78.5438 31.2703C78.5315 31.2416 78.5312 31.2129 78.5429 31.1842C78.578 31.0946 78.5777 31.0047 78.542 30.9145C78.5321 30.8882 78.5321 30.8618 78.542 30.8355C78.5777 30.7441 78.578 30.6534 78.5429 30.5632C78.5323 30.5362 78.5323 30.5096 78.5429 30.4833C78.578 30.3925 78.578 30.302 78.5429 30.2118C78.5323 30.1855 78.5323 30.1588 78.5429 30.1319C78.578 30.0417 78.578 29.9515 78.5429 29.8614C78.5323 29.8344 78.5323 29.8072 78.5429 29.7797C78.578 29.6895 78.578 29.5996 78.5429 29.51C78.5323 29.4831 78.5323 29.4558 78.5429 29.4283C78.578 29.3381 78.578 29.2482 78.5429 29.1587C78.5323 29.1317 78.5323 29.1048 78.5429 29.0778C78.578 28.9871 78.578 28.8966 78.5429 28.8064C78.5323 28.7801 78.5323 28.7534 78.5429 28.7265C78.5786 28.6357 78.5783 28.5453 78.542 28.4551C78.5315 28.4287 78.5315 28.4021 78.542 28.3751C78.5783 28.2844 78.5783 28.1939 78.542 28.1037C78.5315 28.0774 78.5315 28.051 78.542 28.0247C78.5783 27.9339 78.5783 27.8431 78.542 27.7524C78.5315 27.726 78.5315 27.6994 78.542 27.6724C78.5783 27.5823 78.5783 27.4921 78.542 27.4019C78.5315 27.375 78.5315 27.348 78.542 27.3211C78.5789 27.2297 78.5786 27.1387 78.5411 27.0479C78.5306 27.0227 78.5306 26.9975 78.5411 26.9724C78.5792 26.8804 78.5792 26.7885 78.5411 26.6966C78.5306 26.6714 78.5306 26.6459 78.5411 26.6201C78.578 26.53 78.5789 26.4395 78.5438 26.3487C78.5336 26.3232 78.533 26.2951 78.542 26.2697C78.5684 26.1947 78.5733 26.1139 78.5569 26.0272C78.5557 26.0201 78.5525 26.0135 78.5477 26.0081C78.543 26.0027 78.5368 25.9987 78.5299 25.9965C78.5231 25.9943 78.5157 25.9941 78.5087 25.9958C78.5017 25.9975 78.4953 26.0011 78.4902 26.0061L63.6341 40.9061C63.628 40.9119 63.6195 40.9148 63.6105 40.9142C63.6015 40.9135 63.5926 40.9094 63.5858 40.9026L59.6955 37.0122C59.6862 37.0031 59.6809 36.9907 59.6807 36.9777C59.6806 36.9647 59.6855 36.9522 59.6946 36.9429L74.5463 22.0561C74.5492 22.0532 74.5513 22.0496 74.5524 22.0457C74.5535 22.0417 74.5535 22.0376 74.5524 22.0336C74.5514 22.0297 74.5492 22.0261 74.5463 22.0232C74.5434 22.0204 74.5397 22.0184 74.5357 22.0174Z" fill="#2D5BFF"/>
<path d="M92.8008 16.6426V40.8683C92.8008 40.8853 92.794 40.9017 92.782 40.9137C92.77 40.9257 92.7537 40.9325 92.7366 40.9325H87.1335C87.1164 40.9325 87.1001 40.9257 87.0881 40.9137C87.0761 40.9017 87.0693 40.8853 87.0693 40.8683V16.6435C87.0693 16.6265 87.0761 16.6102 87.0881 16.5981C87.1001 16.5861 87.1164 16.5794 87.1335 16.5794L92.7366 16.5785C92.7537 16.5785 92.77 16.5852 92.782 16.5973C92.794 16.6093 92.8008 16.6256 92.8008 16.6426Z" fill="#172435"/>
</svg>
