<svg width="100" height="40" viewBox="0 0 100 40" fill="none" xmlns="http://www.w3.org/2000/svg">
<g clip-path="url(#clip0_17_4196)">
<path d="M26.6948 6.58988C26.7422 6.50649 26.8 6.42991 26.8684 6.36012C27.2277 5.99053 27.6429 5.74532 28.1141 5.62446C28.9489 5.41039 29.7136 5.53288 30.4083 5.99194C30.8275 6.26924 31.1378 6.64492 31.3393 7.11896C31.4793 7.44966 31.5353 7.81269 31.5072 8.20805C31.4256 9.34354 30.5713 10.207 29.4822 10.4494C28.6025 10.6457 27.7858 10.4476 27.0321 9.85501C27.0209 9.84613 27.0124 9.83533 27.0068 9.82269C27.0045 9.81709 27.0023 9.81149 27.0005 9.80581C26.9973 9.79669 26.9911 9.78861 26.9829 9.78261C26.8977 9.72174 26.8183 9.64399 26.7448 9.54936C26.4533 9.17459 26.2801 8.78887 26.2248 8.39211C26.1391 7.77662 26.2609 7.2199 26.5901 6.72197C26.5975 6.7105 26.6017 6.6974 26.6021 6.68403C26.603 6.65686 26.6155 6.63976 26.6393 6.63274C26.6637 6.62618 26.6822 6.61189 26.6948 6.58988Z" fill="white"/>
<path d="M71.9499 10.524C73.4195 10.524 74.6108 9.40442 74.6108 8.02328C74.6108 6.64224 73.4195 5.52264 71.9499 5.52264C70.4804 5.52264 69.2891 6.64224 69.2891 8.02328C69.2891 9.40442 70.4804 10.524 71.9499 10.524Z" fill="white"/>
<path d="M19.2958 19.2858C20.4749 19.3687 21.5249 19.7739 22.4457 20.5013C22.5333 20.5707 22.6168 20.6348 22.6959 20.6939C22.7156 20.7084 22.7296 20.7269 22.738 20.7494C22.747 20.7738 22.7648 20.7895 22.7915 20.7965C22.8025 20.7997 22.8127 20.8055 22.821 20.8133C23.6866 21.6415 24.2647 22.6278 24.5551 23.7721C24.846 24.9165 24.8717 26.0704 24.6323 27.234C24.3072 28.8177 23.4884 30.0895 22.1759 31.0493C21.6158 31.4587 20.9906 31.7899 20.3006 32.0428C19.7699 32.2372 19.2205 32.3885 18.6523 32.4967C17.6475 32.6885 16.635 32.7468 15.6168 32.7462C12.2522 32.7443 8.86856 32.744 5.46593 32.7455C5.46326 32.7455 5.4606 32.7449 5.45813 32.7439C5.45566 32.7428 5.45341 32.7412 5.45152 32.7393C5.44963 32.7373 5.44813 32.735 5.44711 32.7324C5.44608 32.7299 5.44556 32.7271 5.44556 32.7243V6.81828C5.44556 6.79673 5.45633 6.78596 5.47787 6.78596C8.94095 6.77753 12.388 6.77799 15.8192 6.78736C16.0426 6.7883 16.3022 6.80094 16.5978 6.82531C17.566 6.90447 18.4633 7.08271 19.2895 7.36001C19.3753 7.38882 19.4616 7.44994 19.5467 7.45135C19.5711 7.45182 19.5945 7.45721 19.617 7.46751C19.6282 7.47313 19.6397 7.47828 19.6514 7.48297C20.4421 7.80524 21.1356 8.22169 21.7319 8.73228C21.7773 8.77115 21.8195 8.81259 21.8584 8.85658C21.9 8.90442 21.9483 8.94138 22.0031 8.96761C22.0171 8.97465 22.0263 8.98569 22.0305 9.00065C22.0323 9.00769 22.0345 9.01473 22.0368 9.02177C22.0391 9.02921 22.0434 9.03553 22.0495 9.04073C22.1956 9.16767 22.319 9.30838 22.4197 9.463C22.4277 9.47468 22.4383 9.48364 22.4514 9.48972C22.4645 9.4958 22.475 9.5042 22.483 9.515C22.8713 10.0335 23.1522 10.5261 23.3255 10.9926C23.8238 12.337 23.9157 13.6907 23.6009 15.0539C23.1105 17.1779 21.3707 18.5474 19.3029 19.03C19.2883 19.0334 19.2753 19.0416 19.2659 19.0534C19.2565 19.0652 19.2515 19.0797 19.2516 19.0947L19.2523 19.2395C19.2523 19.268 19.2668 19.2835 19.2958 19.2858ZM18.3888 16.2238C18.4106 16.1942 18.4366 16.1872 18.4569 16.1562C18.5487 16.0129 18.6354 15.8649 18.7169 15.7122C18.778 15.5977 18.8104 15.4677 18.8722 15.3518C18.9129 15.2731 18.8926 15.2105 18.9263 15.1319C18.9469 15.0827 18.9631 15.0297 18.9747 14.973C19.0774 14.4859 19.094 14.0153 19.0247 13.5615C18.8672 12.5309 18.3391 11.7618 17.4402 11.254C17.0304 11.0221 16.5643 10.8615 16.042 10.772C15.6476 10.7041 15.2422 10.6697 14.8257 10.6687C13.2963 10.6645 11.7568 10.6634 10.2073 10.6652C10.193 10.6652 10.1792 10.671 10.1691 10.6813C10.1589 10.6915 10.1532 10.7054 10.1532 10.72V17.7653C10.1532 17.7782 10.1583 17.7905 10.1674 17.7996C10.1765 17.8086 10.1888 17.8138 10.2017 17.8138C11.6692 17.8133 13.1872 17.8133 14.7555 17.8138C16.1172 17.8138 17.5597 17.369 18.3888 16.2238ZM17.294 21.5286C17.2875 21.522 17.28 21.5176 17.2715 21.5152C17.0531 21.464 16.8381 21.3817 16.6251 21.341C16.1493 21.2511 15.6715 21.2057 15.1918 21.2047C13.5186 21.2019 11.8564 21.2026 10.2052 21.2068C10.1983 21.2068 10.1916 21.2081 10.1853 21.2108C10.179 21.2133 10.1732 21.2172 10.1684 21.2221C10.1636 21.2269 10.1598 21.2326 10.1571 21.2389C10.1545 21.2452 10.1532 21.252 10.1532 21.2588V28.7531C10.1532 28.7788 10.1659 28.7917 10.1911 28.7917C12.0138 28.7931 13.7411 28.7924 15.3731 28.7896C16.019 28.7887 16.6402 28.7163 17.2364 28.5725C17.4819 28.5135 17.7313 28.432 17.9848 28.328C18.5492 28.0966 19.0062 27.7638 19.3556 27.3295C19.5396 27.101 19.6769 26.8546 19.7673 26.5904C19.7683 26.5866 19.7702 26.5836 19.773 26.5813C19.7748 26.5794 19.7769 26.5778 19.7793 26.5763C19.7854 26.5726 19.7896 26.5674 19.7919 26.5609C20.0177 25.9051 20.0645 25.2289 19.9325 24.5324C19.858 24.1389 19.7453 23.796 19.5945 23.5037C19.1218 22.5861 18.3614 21.9317 17.3131 21.5406C17.3055 21.5382 17.2992 21.5343 17.294 21.5286Z" fill="white"/>
<path d="M38.206 6.82668V32.7011C38.206 32.7127 38.2014 32.7238 38.1932 32.7319C38.1851 32.7401 38.174 32.7447 38.1624 32.7447H33.6473C33.6358 32.7447 33.6247 32.7401 33.6165 32.7319C33.6083 32.7238 33.6038 32.7127 33.6038 32.7011V6.82597C33.6038 6.81441 33.6083 6.80334 33.6165 6.79517C33.6247 6.787 33.6358 6.78241 33.6473 6.78241L38.1624 6.78311C38.174 6.78311 38.1851 6.7877 38.1932 6.79587C38.2014 6.80404 38.206 6.81512 38.206 6.82668Z" fill="white"/>
<path d="M45.197 6.78241H40.6818C40.6624 6.78241 40.6467 6.79814 40.6467 6.81754V32.7095C40.6467 32.729 40.6624 32.7447 40.6818 32.7447H45.197C45.2163 32.7447 45.2321 32.729 45.2321 32.7095V6.81754C45.2321 6.79814 45.2163 6.78241 45.197 6.78241Z" fill="white"/>
<path d="M81.1238 16.5659C81.2198 16.5931 81.2846 16.5679 81.3182 16.4907C81.4542 16.1829 81.6189 15.8775 81.8141 15.5744C81.8213 15.5634 81.8253 15.5505 81.8261 15.5372C81.8277 15.5058 81.8421 15.4836 81.8685 15.4705C81.8901 15.4592 81.9077 15.4433 81.9213 15.4227C82.5365 14.4994 83.4948 13.8157 84.5499 13.4293C85.2482 13.1736 86.0121 13.0358 86.84 13.0161C87.3152 13.0049 87.7695 13.0269 88.2031 13.0822C88.6694 13.1416 89.1134 13.2443 89.5358 13.3899C91.2604 13.9872 92.4715 15.1587 93.1674 16.9045C93.4618 17.6423 93.6417 18.4342 93.7089 19.2801C93.7425 19.6979 93.7577 20.1631 93.7561 20.6755C93.7449 24.5995 93.7441 28.6085 93.7529 32.7026C93.7529 32.7306 93.7393 32.7447 93.7113 32.7447H89.2006C89.191 32.7447 89.1822 32.7408 89.175 32.7338C89.1686 32.7268 89.1646 32.7174 89.1646 32.7074C89.1646 28.9015 89.1646 25.0274 89.1638 21.0852C89.1638 20.1823 88.9806 19.1965 88.4975 18.4581C88.0967 17.844 87.5608 17.4116 86.8896 17.161C86.2185 16.9099 85.477 16.8422 84.6642 16.9579C83.8707 17.0709 83.1932 17.3763 82.6316 17.8741C82.5661 17.9322 82.5061 17.9924 82.4525 18.0547C82.4005 18.1151 82.3389 18.125 82.3109 18.2065C82.3037 18.2267 82.2909 18.2428 82.2733 18.255C82.2677 18.2587 82.2613 18.262 82.2557 18.2648C82.2477 18.2686 82.2421 18.2737 82.2373 18.2802C81.8781 18.7403 81.6214 19.26 81.4654 19.8395C81.3942 20.1041 81.3462 20.3633 81.3198 20.6172C81.2902 20.9081 81.275 21.2116 81.275 21.5278C81.2774 25.3375 81.2782 29.0666 81.2766 32.7152C81.2766 32.723 81.2734 32.7305 81.2678 32.7361C81.2622 32.7416 81.255 32.7447 81.247 32.7447H76.7102C76.6868 32.7447 76.675 32.733 76.675 32.7096V13.3344C76.675 13.3156 76.6825 13.2975 76.6956 13.2843C76.7088 13.2709 76.7267 13.2635 76.7454 13.2635H81.0486C81.0726 13.2635 81.0838 13.2754 81.0838 13.2993V16.5124C81.0838 16.5406 81.0974 16.5583 81.1238 16.5659Z" fill="white"/>
<path d="M31.1452 13.293V32.7158C31.1452 32.7235 31.1422 32.7309 31.1368 32.7362C31.1314 32.7417 31.1241 32.7447 31.1164 32.7447H26.5886C26.581 32.7447 26.5737 32.7417 26.5683 32.7362C26.5629 32.7309 26.5598 32.7235 26.5598 32.7158V13.2923C26.5598 13.2847 26.5629 13.2773 26.5683 13.2719C26.5737 13.2665 26.581 13.2635 26.5886 13.2635L31.1164 13.2642C31.1241 13.2642 31.1314 13.2672 31.1368 13.2726C31.1422 13.278 31.1452 13.2853 31.1452 13.293Z" fill="white"/>
<path d="M59.6226 17.6142C59.5392 17.5922 59.4638 17.5912 59.3964 17.6114C59.3678 17.6202 59.3404 17.6174 59.3141 17.603C59.2743 17.5805 59.2354 17.5828 59.1975 17.61C59.187 17.6176 59.1744 17.6218 59.1613 17.6221C59.1482 17.6223 59.1354 17.6186 59.1244 17.6114C59.0799 17.5809 59.0352 17.58 58.9903 17.6086C58.964 17.6254 58.9378 17.6257 58.9115 17.6093C58.8679 17.5816 58.8237 17.5816 58.7788 17.6093C58.7525 17.6252 58.7263 17.625 58.7 17.6086C58.6564 17.5809 58.6132 17.5809 58.5701 17.6086C58.5577 17.6165 58.5433 17.6207 58.5286 17.6207C58.5139 17.6207 58.4995 17.6165 58.4872 17.6086C58.445 17.5809 58.403 17.5807 58.3614 17.6079C58.3486 17.6163 58.3338 17.6207 58.3185 17.6207C58.3033 17.6207 58.2884 17.6163 58.2757 17.6079C58.2339 17.5807 58.192 17.5809 58.1499 17.6086C58.1373 17.6167 58.1227 17.621 58.1077 17.621C58.0927 17.621 58.0781 17.6167 58.0655 17.6086C58.0234 17.5809 57.981 17.5809 57.9384 17.6086C57.926 17.6165 57.9118 17.6207 57.8972 17.6207C57.8826 17.6207 57.8684 17.6165 57.8562 17.6086C57.8131 17.5809 57.7695 17.5811 57.7255 17.6093C57.6997 17.6257 57.674 17.6257 57.6482 17.6093C57.6033 17.5811 57.5585 17.5811 57.514 17.6093C57.4878 17.6257 57.4618 17.6257 57.436 17.6093C57.392 17.5811 57.3479 17.5811 57.3039 17.6093C57.2922 17.6168 57.2785 17.6207 57.2646 17.6207C57.2506 17.6207 57.237 17.6168 57.2252 17.6093C57.1812 17.5811 57.1376 17.5809 57.0945 17.6086C57.0822 17.6165 57.0679 17.6207 57.0533 17.6207C57.0387 17.6207 57.0245 17.6165 57.0123 17.6086C56.9697 17.5809 56.9273 17.5807 56.8851 17.6079C56.8724 17.616 56.8576 17.6204 56.8426 17.6204C56.8274 17.6204 56.8127 17.616 56.8002 17.6079C56.7584 17.5807 56.7165 17.5809 56.6743 17.6086C56.6618 17.6166 56.6473 17.6208 56.6324 17.6208C56.6176 17.6208 56.6031 17.6166 56.5907 17.6086C56.5481 17.5809 56.5052 17.5809 56.4622 17.6086C56.4502 17.6163 56.4363 17.6206 56.4221 17.6206C56.4079 17.6208 56.394 17.6168 56.382 17.6093C56.338 17.5811 56.2944 17.5809 56.2513 17.6086C56.2391 17.6165 56.2248 17.6207 56.2101 17.6207C56.1956 17.6207 56.1813 17.6165 56.1692 17.6086C56.1265 17.5809 56.0837 17.5809 56.0406 17.6086C56.0286 17.6163 56.0147 17.6204 56.0006 17.6204C55.9863 17.6204 55.9724 17.6163 55.9605 17.6086C55.9165 17.5809 55.8729 17.5809 55.8298 17.6086C55.8175 17.6165 55.8031 17.6207 55.7886 17.6207C55.774 17.6207 55.7598 17.6165 55.7475 17.6086C55.705 17.5809 55.6621 17.5809 55.619 17.6086C55.6071 17.6163 55.5932 17.6206 55.5789 17.6206C55.5648 17.6208 55.5508 17.6168 55.5389 17.6093C55.4948 17.5811 55.4513 17.5809 55.4082 17.6086C55.3959 17.6165 55.3816 17.6207 55.367 17.6207C55.3524 17.6207 55.3381 17.6165 55.326 17.6086C55.2833 17.5809 55.2406 17.5809 55.1974 17.6086C55.1854 17.6163 55.1716 17.6206 55.1574 17.6206C55.1431 17.6208 55.1293 17.6168 55.1173 17.6093C55.0733 17.5811 55.0297 17.5809 54.9867 17.6086C54.9743 17.6165 54.9599 17.6207 54.9451 17.6207C54.9305 17.6207 54.9161 17.6165 54.9037 17.6086C54.8615 17.5809 54.8194 17.5809 54.7772 17.6086C54.7646 17.6166 54.75 17.6208 54.7351 17.6208C54.7201 17.6208 54.7056 17.6166 54.6929 17.6086C54.6508 17.5809 54.6084 17.5809 54.5657 17.6086C54.5534 17.6165 54.539 17.6207 54.5243 17.6207C54.5096 17.6207 54.4952 17.6165 54.4829 17.6086C54.4402 17.5809 54.3971 17.5809 54.3535 17.6086C54.3269 17.6254 54.3004 17.6257 54.2742 17.6093C54.2301 17.5811 54.1866 17.5809 54.1435 17.6086C54.1311 17.6165 54.1167 17.6207 54.102 17.6207C54.0873 17.6207 54.0729 17.6165 54.0606 17.6086C54.0184 17.5809 53.9762 17.5809 53.934 17.6086C53.9215 17.6165 53.9068 17.6206 53.892 17.6205C53.877 17.6204 53.8624 17.616 53.8497 17.6079C53.8076 17.5807 53.7654 17.5809 53.7233 17.6086C53.7107 17.6166 53.6961 17.6208 53.6811 17.6208C53.6662 17.6208 53.6516 17.6166 53.639 17.6086C53.5968 17.5809 53.5544 17.5809 53.5118 17.6086C53.4997 17.6163 53.4856 17.6204 53.4713 17.6204C53.457 17.6204 53.443 17.6163 53.431 17.6086C53.387 17.5809 53.3436 17.5809 53.301 17.6086C53.2884 17.6166 53.2739 17.6208 53.2591 17.6208C53.2443 17.6208 53.2298 17.6166 53.2174 17.6086C53.1752 17.5809 53.1331 17.5809 53.0909 17.6086C53.0784 17.6165 53.0637 17.6206 53.0488 17.6205C53.0338 17.6204 53.0192 17.616 53.0066 17.6079C52.9645 17.5807 52.9223 17.5809 52.8801 17.6086C52.8675 17.6166 52.8529 17.6208 52.838 17.6208C52.823 17.6208 52.8084 17.6166 52.7958 17.6086C52.7537 17.5809 52.711 17.5809 52.6679 17.6086C52.6556 17.6165 52.6413 17.6207 52.6267 17.6207C52.6121 17.6207 52.5979 17.6165 52.5857 17.6086C52.5431 17.5809 52.5005 17.5809 52.4579 17.6086C52.4455 17.6165 52.4311 17.6207 52.4164 17.6207C52.4017 17.6207 52.3873 17.6165 52.3749 17.6086C52.3323 17.5809 52.2895 17.5809 52.2464 17.6086C52.2344 17.6163 52.2205 17.6206 52.2063 17.6206C52.1921 17.6208 52.1782 17.6168 52.1662 17.6093C52.1222 17.5811 52.0786 17.5809 52.0356 17.6086C52.0233 17.6165 52.009 17.6207 51.9943 17.6207C51.9798 17.6207 51.9655 17.6165 51.9534 17.6086C51.9107 17.5809 51.8679 17.5809 51.8248 17.6086C51.8128 17.6163 51.7989 17.6204 51.7847 17.6204C51.7705 17.6204 51.7566 17.6163 51.7447 17.6086C51.7007 17.5809 51.6571 17.5809 51.614 17.6086C51.6016 17.6165 51.5872 17.6207 51.5725 17.6207C51.5578 17.6207 51.5434 17.6165 51.5311 17.6086C51.4889 17.5809 51.4468 17.5809 51.4046 17.6086C51.392 17.6166 51.3773 17.6208 51.3625 17.6208C51.3475 17.6208 51.3329 17.6166 51.3203 17.6086C51.2782 17.5809 51.236 17.5807 51.1938 17.6079C51.1813 17.616 51.1666 17.6204 51.1517 17.6204C51.1367 17.6204 51.122 17.616 51.1095 17.6079C51.0674 17.5807 51.025 17.5809 50.9823 17.6086C50.9698 17.6166 50.9552 17.6208 50.9404 17.6208C50.9255 17.6208 50.9111 17.6166 50.8987 17.6086C50.8565 17.5809 50.8144 17.5809 50.7722 17.6086C50.7596 17.6166 50.745 17.6208 50.73 17.6208C50.7152 17.6208 50.7005 17.6166 50.6879 17.6086C50.6457 17.5809 50.6033 17.5809 50.5607 17.6086C50.5486 17.6163 50.5345 17.6204 50.5202 17.6204C50.5059 17.6204 50.4919 17.6163 50.4799 17.6086C50.4359 17.5809 50.3926 17.5809 50.3499 17.6086C50.3374 17.6166 50.3228 17.6208 50.308 17.6208C50.2932 17.6208 50.2787 17.6166 50.2663 17.6086C50.2242 17.5809 50.1823 17.5807 50.1406 17.6079C50.1278 17.6161 50.1129 17.6204 50.0977 17.6204C50.0825 17.6204 50.0676 17.6161 50.0548 17.6079C50.0132 17.5811 49.9715 17.5811 49.9298 17.6079C49.917 17.6163 49.9021 17.6207 49.8867 17.6207C49.8713 17.6207 49.8563 17.6163 49.8433 17.6079C49.8021 17.5811 49.7607 17.5811 49.7189 17.6079C49.7062 17.6161 49.6914 17.6204 49.6762 17.6204C49.661 17.6204 49.6461 17.6161 49.6333 17.6079C49.5916 17.5807 49.5497 17.5807 49.5075 17.6079C49.495 17.616 49.4803 17.6204 49.4654 17.6204C49.4503 17.6204 49.4357 17.616 49.4231 17.6079C49.381 17.5811 49.3387 17.5814 49.296 17.6086C49.2836 17.6163 49.2693 17.6205 49.2548 17.6205C49.2403 17.6205 49.226 17.6163 49.2138 17.6086C49.1707 17.5814 49.1276 17.5814 49.0845 17.6086C49.0723 17.6162 49.0581 17.6202 49.0437 17.6202C49.0293 17.6202 49.0153 17.6162 49.003 17.6086C48.9599 17.5814 48.9166 17.5814 48.873 17.6086C48.8468 17.625 48.8203 17.625 48.7936 17.6086C48.7501 17.5819 48.7065 17.5819 48.6629 17.6086C48.6358 17.625 48.6086 17.6247 48.5814 17.6079C48.5383 17.5816 48.4952 17.5819 48.4521 17.6086C48.4254 17.625 48.3985 17.625 48.3713 17.6086C48.3282 17.5823 48.2856 17.5821 48.2434 17.6079C48.2303 17.6158 48.2153 17.6199 48.2001 17.6199C48.1848 17.6199 48.1699 17.6158 48.157 17.6079C48.1167 17.5826 48.0758 17.5821 48.0341 17.6065C48.0055 17.6233 47.9762 17.624 47.9462 17.6086C47.8966 17.5823 47.846 17.5847 47.7945 17.6156C47.7854 17.6211 47.7749 17.6241 47.7643 17.6242C47.7535 17.6243 47.7431 17.6216 47.7339 17.6163C47.7246 17.611 47.7169 17.6033 47.7116 17.594C47.7064 17.5847 47.7036 17.5743 47.7039 17.5636L47.7207 15.5717C47.7212 15.5482 47.7247 15.5253 47.7312 15.5028C47.7491 15.4409 47.7458 15.3791 47.7214 15.3173C47.713 15.2953 47.713 15.273 47.7214 15.2506C47.7491 15.1789 47.7493 15.1076 47.7221 15.0369C47.7132 15.014 47.7132 14.9912 47.7221 14.9688C47.7493 14.8976 47.7493 14.8266 47.7221 14.7559C47.7132 14.7329 47.7132 14.7102 47.7221 14.6877C47.7493 14.6166 47.7493 14.5455 47.7221 14.4748C47.7132 14.4523 47.7132 14.4296 47.7221 14.4067C47.7493 14.335 47.7488 14.2633 47.7207 14.1916C47.7123 14.1701 47.7128 14.1488 47.7221 14.1277C47.7427 14.078 47.7471 14.027 47.7355 13.9745C47.7252 13.9286 47.7221 13.8811 47.7263 13.8319C47.7413 13.6679 47.7439 13.5059 47.734 13.3457C47.7334 13.3352 47.7349 13.3245 47.7384 13.3146C47.742 13.3047 47.7476 13.2956 47.7549 13.2878C47.7621 13.2801 47.7708 13.274 47.7806 13.2698C47.7903 13.2656 47.8007 13.2635 47.8113 13.2635H67.1358C67.1598 13.2635 67.1717 13.2752 67.1717 13.2986V32.6906C67.1717 32.6973 67.1691 32.7038 67.1645 32.7085C67.1599 32.7132 67.1536 32.7158 67.1471 32.7158L62.8189 32.7152C62.7973 32.7152 62.787 32.7044 62.788 32.6829C62.7929 32.5726 62.8167 32.4594 62.8161 32.3505C62.8109 30.0665 62.8135 27.7415 62.8238 25.3755C62.8243 25.3066 62.8315 25.2331 62.8455 25.1549C62.854 25.1076 62.8484 25.0612 62.8287 25.0157C62.8189 24.9928 62.8187 24.9698 62.828 24.9469C62.8561 24.8752 62.8559 24.8033 62.8273 24.7311C62.8194 24.7101 62.8194 24.689 62.8273 24.6679C62.8559 24.5948 62.8561 24.5223 62.828 24.4501C62.8195 24.4285 62.8195 24.4072 62.828 24.3862C62.8561 24.3136 62.8561 24.2412 62.828 24.169C62.8195 24.148 62.8195 24.1266 62.828 24.1051C62.8561 24.033 62.8561 23.9608 62.828 23.8887C62.8195 23.8671 62.8195 23.8454 62.828 23.8234C62.8561 23.7512 62.8561 23.6793 62.828 23.6076C62.8195 23.5861 62.8195 23.5643 62.828 23.5423C62.8561 23.4701 62.8561 23.3982 62.828 23.3266C62.8195 23.305 62.8195 23.2835 62.828 23.2619C62.8561 23.1894 62.8561 23.117 62.828 23.0448C62.8195 23.0238 62.8195 23.0024 62.828 22.9809C62.8566 22.9083 62.8563 22.836 62.8273 22.7638C62.8189 22.7427 62.8189 22.7214 62.8273 22.6998C62.8563 22.6273 62.8563 22.5549 62.8273 22.4827C62.8189 22.4617 62.8189 22.4406 62.8273 22.4195C62.8563 22.3469 62.8563 22.2743 62.8273 22.2017C62.8189 22.1806 62.8189 22.1593 62.8273 22.1377C62.8563 22.0656 62.8563 21.9935 62.8273 21.9213C62.8189 21.8998 62.8189 21.8782 62.8273 21.8567C62.8568 21.7836 62.8566 21.7108 62.8266 21.6382C62.8182 21.618 62.8182 21.5978 62.8266 21.5778C62.8571 21.5042 62.8571 21.4307 62.8266 21.3572C62.8182 21.337 62.8182 21.3166 62.8266 21.296C62.8561 21.2239 62.8568 21.1515 62.8287 21.0789C62.8206 21.0585 62.8201 21.036 62.8273 21.0157C62.8484 20.9557 62.8523 20.891 62.8392 20.8217C62.8383 20.816 62.8357 20.8107 62.8319 20.8064C62.8281 20.8021 62.8231 20.7989 62.8176 20.7971C62.8122 20.7954 62.8063 20.7952 62.8007 20.7966C62.7951 20.7979 62.7899 20.8008 62.7859 20.8048L50.9022 32.7236C50.8973 32.7282 50.8905 32.7306 50.8833 32.7301C50.8761 32.7295 50.869 32.7262 50.8636 32.7208L47.7516 29.6088C47.7442 29.6015 47.7399 29.5916 47.7398 29.5812C47.7397 29.5708 47.7436 29.5608 47.7509 29.5534L59.6311 17.6451C59.6334 17.6428 59.6351 17.6399 59.6359 17.6368C59.6368 17.6336 59.6368 17.6303 59.6359 17.6271C59.6351 17.624 59.6334 17.6211 59.6311 17.6188C59.6288 17.6166 59.6258 17.615 59.6226 17.6142Z" fill="white"/>
<path d="M74.2332 13.3148V32.6934C74.2332 32.707 74.2277 32.7201 74.2181 32.7297C74.2085 32.7393 74.1955 32.7447 74.1818 32.7447H69.6998C69.6861 32.7447 69.6731 32.7393 69.6635 32.7297C69.6539 32.7201 69.6484 32.707 69.6484 32.6934V13.3155C69.6484 13.3019 69.6539 13.2888 69.6635 13.2792C69.6731 13.2696 69.6861 13.2642 69.6998 13.2642L74.1818 13.2635C74.1955 13.2635 74.2085 13.2688 74.2181 13.2785C74.2277 13.2881 74.2332 13.3012 74.2332 13.3148Z" fill="white"/>
</g>
<defs>
<clipPath id="clip0_17_4196">
<rect width="99.19" height="40" fill="white"/>
</clipPath>
</defs>
</svg>
